<svg id="Ebene_1" data-name="Ebene 1" xmlns="http://www.w3.org/2000/svg" viewBox="0 0 646.01 345.68"><defs><style>.cls-1{fill:#fff;}</style></defs><path class="cls-1" d="M73.77,324.23H101.6v25.9a36.1,36.1,0,0,1-25.45,10.53c-18.21,0-33.68-14.92-33.68-32.59s15.47-32.49,33.68-32.49a36.1,36.1,0,0,1,25.45,10.53l-9.8,8.78a21.56,21.56,0,0,0-15.65-7c-10.7,0-19.76,9.33-19.76,20.22s9.06,20.32,19.76,20.32a21.37,21.37,0,0,0,12.27-4v-9.62H73.77Z" transform="translate(-42.47 -15.34)"/><path class="cls-1" d="M150,361l-6.68-6.95a28.22,28.22,0,0,1-18.3,6.59c-12.09,0-21.15-6.78-21.15-18.22,0-8.23,4-13.45,13.64-17.75-3.29-4.85-4.48-8.15-4.48-12.81,0-8.79,7.87-16,17.84-16,10.25,0,17.76,6.86,17.76,15.92,0,7.05-4.4,10.89-14.37,15.47,2.74,3.2,5.86,6.68,9.7,10.8a60.31,60.31,0,0,0,6.13-11.53l9.7,4.57a93.51,93.51,0,0,1-8.69,14.56l9.88,10.43Zm-13.73-14.37c-5.58-5.85-9.7-10.52-12.9-14.27-4.3,2.56-6.23,5.49-6.23,9.15,0,5.58,4.31,9,9.52,9C129.92,350.5,133.12,349,136.23,346.65Zm-11.8-34.77c0,2.92,1.46,5.3,4,8.51,6.13-2.47,8.61-4.4,8.61-8.51,0-3.67-2.48-6.41-6-6.41A6.35,6.35,0,0,0,124.43,311.88Z" transform="translate(-42.47 -15.34)"/><path class="cls-1" d="M158.86,350.22l7.78-9.24c6,5.12,12.72,8.24,20.68,8.24,6.77,0,10.25-3.12,10.25-7.05,0-4.49-3.66-5.86-13.27-8.06-13.27-3-22.7-6.77-22.7-18.94,0-11.62,9.52-19.59,23.25-19.59,10.25,0,18.21,3.21,24.62,8.7l-7.05,9.7c-5.58-4.48-11.9-7-17.94-7-5.76,0-9.24,3-9.24,6.78,0,4.57,3.75,6,13.45,8.23,13.55,3,22.52,7.05,22.52,18.67,0,12-9.06,20-24.44,20C175.88,360.66,166.18,357,158.86,350.22Z" transform="translate(-42.47 -15.34)"/><path class="cls-1" d="M237.48,296.68H251v62.88H237.48Z" transform="translate(-42.47 -15.34)"/><path class="cls-1" d="M272.52,308.85H252.94V296.68h52.71v12.17H286.07v50.71H272.52Z" transform="translate(-42.47 -15.34)"/><path class="cls-1" d="M321.49,350.22l7.78-9.24c6,5.12,12.72,8.24,20.68,8.24,6.77,0,10.25-3.12,10.25-7.05,0-4.49-3.66-5.86-13.27-8.06-13.27-3-22.7-6.77-22.7-18.94,0-11.62,9.52-19.59,23.25-19.59,10.25,0,18.21,3.21,24.62,8.7l-7.05,9.7c-5.58-4.48-11.89-7-17.93-7-5.77,0-9.25,3-9.25,6.78,0,4.57,3.75,6,13.46,8.23,13.54,3,22.51,7.05,22.51,18.67,0,12-9.06,20-24.44,20C338.51,360.66,328.81,357,321.49,350.22Z" transform="translate(-42.47 -15.34)"/><path class="cls-1" d="M374.55,335.85c0-13.45,11.8-24.71,25.9-24.71s25.71,11.26,25.71,24.71-11.71,24.81-25.71,24.81S374.55,349.31,374.55,335.85Zm38.89,0c0-7.32-5.95-13.45-13-13.45a13.4,13.4,0,0,0-13.09,13.45c0,7.32,5.95,13.55,13.09,13.55S413.44,343.17,413.44,335.85Z" transform="translate(-42.47 -15.34)"/><path class="cls-1" d="M429.42,295.58h13.37v64H429.42Z" transform="translate(-42.47 -15.34)"/><path class="cls-1" d="M493.64,312.24v47.32H480.27v-5.95c-2.83,4.3-8.14,7.05-14.27,7.05-10.25,0-17.58-7.6-17.58-18.31V312.24h12.91v27.27c0,5.86,3.66,9.89,9,9.89,5.58,0,9.88-4,9.88-9.15l.09.27V312.24Z" transform="translate(-42.47 -15.34)"/><path class="cls-1" d="M527.59,356.54a17.22,17.22,0,0,1-10.89,4.12c-8.33,0-14.18-6-14.18-14.46V323H496v-10.8h6.5v-13h12.81v13h10.25V323H515.33v21c0,3.11,2,5.31,4.48,5.31a6.85,6.85,0,0,0,4.58-1.56Z" transform="translate(-42.47 -15.34)"/><path class="cls-1" d="M529.15,298.42a7.23,7.23,0,1,1,7.32,7.32A7.31,7.31,0,0,1,529.15,298.42Zm.55,13.82h13.36v47.32H529.7Z" transform="translate(-42.47 -15.34)"/><path class="cls-1" d="M545.88,335.85c0-13.45,11.81-24.71,25.9-24.71s25.72,11.26,25.72,24.71-11.71,24.81-25.72,24.81S545.88,349.31,545.88,335.85Zm38.9,0c0-7.32-5.95-13.45-13-13.45a13.4,13.4,0,0,0-13.09,13.45c0,7.32,5.95,13.55,13.09,13.55S584.78,343.17,584.78,335.85Z" transform="translate(-42.47 -15.34)"/><path class="cls-1" d="M645.9,329.45v30.11H633V332.28c0-5.85-3.66-9.88-9-9.88-5.58,0-9.88,4-9.88,9.15l-.09-.27v28.28H600.69V312.24h13.36v5.95c2.84-4.3,8.14-7.05,14.28-7.05C638.58,311.14,645.9,318.74,645.9,329.45Z" transform="translate(-42.47 -15.34)"/><path class="cls-1" d="M647.94,353.52l5.77-9.25a26.93,26.93,0,0,0,15.83,5.31c3.57,0,6.13-1.46,6.13-3.57,0-2.93-3.48-3.84-8.33-5.12-9.7-2.38-17.2-5-17.29-14.37-.09-9,7.32-15.38,18.48-15.38A34.37,34.37,0,0,1,687.2,317l-5.39,9.52a26.77,26.77,0,0,0-13.28-4.21c-3.29,0-5.58,1.19-5.58,2.84,0,2.56,1.92,3.29,8.33,5,8.15,2.1,17.21,4.85,17.21,15.19,0,9.34-7.6,15.29-19.22,15.29A35,35,0,0,1,647.94,353.52Z" transform="translate(-42.47 -15.34)"/><rect class="cls-1" x="197.66" y="212.34" width="27.03" height="27.65"/><path class="cls-1" d="M303.55,15.34c-34.71.77-62.67,29.36-63.42,64.87V196.15h27.78V88.2c0-25.41,20.15-46,45-46H460.76V182.46c0,25.43-20.15,46-45,46H298v26.83H425c34.78-.73,62.8-29.39,63.5-65v-175Z" transform="translate(-42.47 -15.34)"/></svg>